<?xml version="1.0" standalone="no"?>
<!DOCTYPE svg PUBLIC "-//W3C//DTD SVG 20010904//EN"
 "http://www.w3.org/TR/2001/REC-SVG-20010904/DTD/svg10.dtd">
<svg version="1.0" xmlns="http://www.w3.org/2000/svg"
 width="583.000000pt" height="534.000000pt" viewBox="0 0 583.000000 534.000000"
 preserveAspectRatio="xMidYMid meet">

<g transform="translate(0.000000,534.000000) scale(0.100000,-0.100000)"
fill="#000000" stroke="none">
<path d="M2370 3480 c-8 -4 -31 -15 -51 -24 -20 -9 -39 -23 -43 -31 -3 -8 -12
-15 -20 -15 -21 0 -159 -139 -180 -180 -9 -18 -16 -43 -16 -56 0 -13 -8 -38
-18 -56 -24 -44 -18 -68 18 -68 24 0 32 8 54 52 14 29 26 64 26 78 0 15 9 35
20 45 11 10 20 22 20 28 0 10 55 66 85 85 11 7 34 21 50 32 17 11 38 20 48 20
9 0 17 5 17 10 0 6 18 10 40 10 34 0 45 -6 76 -40 20 -22 42 -40 49 -40 8 0
24 -15 36 -32 12 -18 35 -46 51 -62 25 -25 33 -28 71 -22 30 5 48 2 62 -8 23
-18 61 -21 70 -6 3 6 20 10 36 10 17 0 38 4 48 10 14 7 24 4 39 -11 19 -17 34
-19 107 -18 68 2 88 6 102 21 9 10 21 18 28 18 7 0 20 9 30 20 10 11 24 20 32
20 7 0 16 6 19 14 3 8 20 18 37 22 17 3 46 15 64 25 19 11 42 19 53 19 10 0
22 5 25 10 3 6 23 10 44 10 30 0 44 -7 73 -37 19 -21 38 -45 42 -53 3 -8 15
-28 25 -45 11 -16 20 -40 20 -52 1 -12 4 -23 9 -25 4 -1 15 -20 24 -40 14 -29
24 -38 43 -38 21 0 25 5 25 29 0 16 -9 46 -19 68 -11 21 -26 54 -35 73 -21 45
-46 88 -72 125 -27 37 -102 79 -118 66 -6 -5 -27 -11 -46 -14 -78 -13 -150
-31 -150 -38 0 -4 -39 -26 -87 -50 -49 -24 -96 -54 -106 -66 -15 -19 -28 -23
-77 -23 -32 0 -62 5 -65 10 -3 6 -46 10 -95 10 -49 0 -92 -4 -95 -10 -3 -5
-21 -10 -40 -10 -30 0 -48 13 -142 105 -59 58 -121 112 -137 120 -32 16 -82
19 -106 5z"/>
<path d="M3950 3000 c-8 -5 -31 -11 -51 -15 -41 -6 -65 -40 -54 -74 8 -26 25
-27 70 -1 20 11 42 20 49 20 22 0 76 31 76 44 0 31 -54 47 -90 26z"/>
<path d="M1813 2984 c-19 -8 -16 -38 5 -56 9 -8 37 -24 62 -36 25 -12 51 -31
58 -42 10 -16 21 -20 45 -18 65 6 37 61 -53 105 -19 9 -39 23 -45 30 -12 14
-55 24 -72 17z"/>
<path d="M4035 2841 c-3 -6 -21 -11 -38 -12 -32 0 -91 -28 -88 -42 0 -4 1 -14
1 -22 0 -11 11 -15 40 -15 27 0 43 5 46 15 4 9 19 15 38 15 45 0 74 23 60 47
-13 21 -49 29 -59 14z"/>
<path d="M1790 2796 c-6 -8 -10 -25 -8 -38 2 -19 10 -23 46 -26 23 -2 42 -7
42 -13 0 -5 15 -9 34 -9 19 0 38 -4 41 -10 9 -15 65 -12 71 4 3 8 -4 28 -17
45 -20 27 -29 30 -95 36 -41 4 -77 11 -80 16 -8 13 -20 11 -34 -5z"/>
<path d="M2232 2560 c-26 -42 -10 -70 39 -70 10 0 19 -4 19 -10 0 -6 27 -10
60 -10 45 0 62 4 66 15 9 24 -15 45 -52 45 -18 0 -36 5 -39 10 -3 6 -17 10
-30 10 -12 0 -25 7 -29 15 -7 20 -19 19 -34 -5z"/>
<path d="M3800 2497 c0 -19 -133 -147 -152 -147 -10 0 -33 -9 -53 -20 -20 -11
-44 -20 -55 -20 -10 0 -22 -4 -25 -10 -3 -5 -17 -10 -30 -10 -13 0 -27 -4 -30
-10 -3 -5 -16 -10 -29 -10 -29 0 -69 -41 -60 -63 7 -19 59 -24 69 -7 3 6 16
10 29 10 12 0 27 5 34 12 9 9 15 9 24 0 15 -15 64 -16 73 -2 3 6 17 10 31 10
13 0 24 -4 24 -10 0 -5 7 -10 15 -10 10 0 15 -11 15 -35 0 -28 -8 -43 -41 -75
-23 -22 -45 -40 -50 -40 -16 0 -10 -38 7 -44 33 -13 55 -5 95 36 40 42 69 95
69 128 0 31 -32 81 -57 91 -22 8 -23 11 -9 24 8 8 18 15 23 15 11 0 135 129
151 157 19 36 15 43 -28 43 -26 0 -40 -5 -40 -13z"/>
<path d="M3252 2478 c-17 -17 -15 -32 6 -51 20 -19 87 -23 97 -7 3 6 26 10 51
10 48 0 66 18 44 45 -14 17 -125 21 -135 5 -4 -7 -12 -7 -25 0 -23 13 -23 13
-38 -2z"/>
<path d="M2612 2458 c-18 -18 -14 -49 10 -69 16 -14 37 -19 84 -19 35 0 66 5
69 10 12 20 105 0 105 -22 0 -5 23 -8 50 -8 28 0 50 5 50 10 0 6 8 5 20 -2 17
-11 24 -9 52 20 27 26 31 35 22 50 -16 25 -47 26 -69 2 -30 -34 -118 -20 -155
25 -17 21 -53 19 -95 -5 -20 -11 -46 -20 -59 -20 -12 0 -31 9 -41 20 -21 23
-27 24 -43 8z"/>
<path d="M1998 2420 c9 -16 22 -30 28 -30 6 0 19 -9 29 -20 10 -11 23 -20 30
-20 7 0 20 -9 31 -21 23 -25 86 -59 111 -59 13 0 10 -7 -15 -33 -47 -48 -45
-99 4 -144 20 -18 40 -33 44 -33 4 0 10 -9 13 -20 3 -13 -5 -30 -24 -51 -16
-17 -29 -39 -29 -49 0 -11 -4 -22 -10 -25 -5 -3 -10 -14 -10 -25 0 -11 -10
-20 -25 -24 -14 -4 -41 -23 -60 -44 -28 -30 -35 -45 -35 -79 0 -50 8 -73 25
-73 6 0 20 -9 30 -20 10 -11 31 -20 47 -20 15 0 28 -4 28 -9 0 -12 237 -14
245 -1 4 6 61 10 140 10 78 0 136 4 140 10 4 6 90 10 225 10 l219 0 3 -32 c2
-23 10 -36 26 -43 12 -5 22 -13 22 -17 0 -14 80 -9 86 5 3 8 18 11 45 9 39 -4
45 -1 100 54 32 32 59 63 59 70 0 6 9 19 20 29 11 10 20 24 20 32 0 7 4 13 8
13 16 0 72 126 72 162 0 43 -22 67 -45 48 -8 -7 -15 -20 -15 -29 0 -22 -47
-116 -65 -131 -8 -7 -15 -18 -15 -25 0 -6 -9 -20 -20 -30 -11 -10 -20 -23 -20
-29 0 -14 -91 -106 -105 -106 -4 0 -16 -7 -26 -16 -16 -14 -20 -14 -53 1 -27
13 -36 24 -38 48 -2 22 -12 36 -33 48 -34 20 -81 24 -90 9 -4 -6 -85 -10 -210
-10 -125 0 -206 -4 -210 -10 -4 -6 -60 -10 -136 -10 -79 0 -129 -4 -129 -10 0
-14 -86 -12 -110 2 -16 10 -24 10 -41 0 -15 -10 -24 -11 -32 -3 -6 6 -18 11
-27 11 -26 0 -80 30 -80 44 0 19 44 56 67 56 15 0 29 18 57 73 20 40 36 78 36
84 0 6 14 16 30 22 26 9 30 15 30 49 0 31 -6 42 -29 60 -17 12 -42 38 -57 57
-26 34 -26 36 -9 55 19 21 65 28 65 10 0 -5 24 -10 54 -10 30 0 58 -4 61 -10
10 -17 85 -12 92 6 9 23 -13 38 -95 64 -40 13 -75 27 -78 32 -3 4 -12 8 -20 8
-22 0 -159 67 -174 85 -7 8 -17 15 -22 15 -5 0 -18 9 -30 20 -12 11 -28 20
-35 20 -7 0 -13 5 -13 10 0 6 -20 10 -45 10 l-44 0 17 -30z"/>
</g>
</svg>
